<svg width="717" height="210" viewBox="0 0 717 210" fill="none" xmlns="http://www.w3.org/2000/svg">
<path d="M0.619141 210L57.0191 -1.43051e-05H138.919C177.619 -1.43051e-05 202.219 8.39998 216.319 22.5C228.019 34.2 232.819 49.8 232.819 66.3C232.819 99 215.719 127.2 174.319 140.1L203.419 210H127.819L104.419 150H87.0191L70.8191 210H0.619141ZM100.219 99.9H125.719C149.119 99.9 161.419 89.1 161.419 75.9C161.419 71.7 159.919 67.8 156.919 64.8C153.019 60.9 146.119 58.8 136.219 58.8H111.319L100.219 99.9ZM219.886 210L342.886 57.9H249.886L265.486 -1.43051e-05H437.686L423.286 52.8L298.786 210H219.886ZM399.936 210L456.336 -1.43051e-05H530.736C571.536 -1.43051e-05 597.036 11.1 612.936 27C628.536 42.6 635.736 63 635.736 88.5C635.736 120 623.736 148.8 601.236 171.3C576.036 196.5 539.736 210 491.136 210H399.936ZM486.636 148.8H498.936C520.236 148.8 538.536 142.5 549.336 131.7C558.036 123 564.336 108.9 564.336 96C564.336 84.6 561.036 77.1 555.636 71.7C549.036 65.1 538.536 61.2 521.736 61.2H510.036L486.636 148.8ZM617.234 210L635.834 141H705.434L686.834 210H617.234Z" fill="white"/>
</svg>
